<?xml version="1.0" encoding="UTF-8"?>
<svg width="30px" height="30px" viewBox="0 0 30 30" version="1.1" xmlns="http://www.w3.org/2000/svg" xmlns:xlink="http://www.w3.org/1999/xlink">
    <title>Icon_Change Billing Cycle</title>
    <defs>
        <polygon id="path-1" points="0 23 26 23 26 0 0 0"></polygon>
    </defs>
    <g id="Icon_Change-Billing-Cycle" stroke="none" stroke-width="1" fill="none" fill-rule="evenodd">
        <g id="Group-29" transform="translate(2.000000, 4.000000)">
            <polygon id="Fill-1" fill="#19A4D1" points="0 23 26 23 26 0.946308305 0 0.946308305"></polygon>
            <polygon id="Fill-2" fill="#2D70A9" points="0 5.651254 26 5.651254 26 0.946667708 0 0.946667708"></polygon>
            <polygon id="Fill-3" fill="#2D70A9" points="1.02816253 11.4958669 4.98631627 11.4958669 4.98631627 7.57334167 1.02816253 7.57334167"></polygon>
            <polygon id="Fill-4" fill="#2D70A9" points="6.01411614 11.4958669 9.97226988 11.4958669 9.97226988 7.57334167 6.01411614 7.57334167"></polygon>
            <polygon id="Fill-5" fill="#2D70A9" points="11.0421392 11.4958669 15.0002929 11.4958669 15.0002929 7.57334167 11.0421392 7.57334167"></polygon>
            <polygon id="Fill-6" fill="#2D70A9" points="16.0280928 11.4958669 19.9862465 11.4958669 19.9862465 7.57334167 16.0280928 7.57334167"></polygon>
            <polygon id="Fill-7" fill="#2D70A9" points="21.0140464 11.4958669 24.9722001 11.4958669 24.9722001 7.57334167 21.0140464 7.57334167"></polygon>
            <polygon id="Fill-8" fill="#2D70A9" points="1.02816253 16.4372998 4.98631627 16.4372998 4.98631627 12.5147746 1.02816253 12.5147746"></polygon>
            <polygon id="Fill-9" fill="#2D70A9" points="6.01411614 16.4372998 9.97226988 16.4372998 9.97226988 12.5147746 6.01411614 12.5147746"></polygon>
            <polygon id="Fill-10" fill="#2D70A9" points="11.0421392 16.4372998 15.0002929 16.4372998 15.0002929 12.5147746 11.0421392 12.5147746"></polygon>
            <polygon id="Fill-11" fill="#2D70A9" points="16.0280928 16.4372998 19.9862465 16.4372998 19.9862465 12.5147746 16.0280928 12.5147746"></polygon>
            <polygon id="Fill-12" fill="#2D70A9" points="21.0140464 16.4372998 24.9722001 16.4372998 24.9722001 12.5147746 21.0140464 12.5147746"></polygon>
            <polygon id="Fill-13" fill="#2D70A9" points="1.02816253 21.3783733 4.98631627 21.3783733 4.98631627 17.4558481 1.02816253 17.4558481"></polygon>
            <polygon id="Fill-14" fill="#2D70A9" points="6.01411614 21.3783733 9.97226988 21.3783733 9.97226988 17.4558481 6.01411614 17.4558481"></polygon>
            <polygon id="Fill-15" fill="#2D70A9" points="11.0421392 21.3783733 15.0002929 21.3783733 15.0002929 17.4558481 11.0421392 17.4558481"></polygon>
            <polygon id="Fill-16" fill="#2D70A9" points="16.0280928 21.3783733 19.9862465 21.3783733 19.9862465 17.4558481 16.0280928 17.4558481"></polygon>
            <polygon id="Fill-17" fill="#2D70A9" points="21.0140464 21.3783733 24.9722001 21.3783733 24.9722001 17.4558481 21.0140464 17.4558481"></polygon>
            <g id="Group-28">
                <path d="M24.6664714,19.4171467 C24.6664714,20.3329057 23.9172002,21.0754325 22.9931233,21.0754325 C22.0686837,21.0754325 21.3194125,20.3329057 21.3194125,19.4171467 C21.3194125,18.5013876 22.0686837,17.7588608 22.9931233,17.7588608 C23.9172002,17.7588608 24.6664714,18.5013876 24.6664714,19.4171467 Z" id="Stroke-18" stroke="#FFB751" stroke-width="0.716967778"></path>
                <mask id="mask-2" fill="white">
                    <use xlink:href="#path-1"></use>
                </mask>
                <g id="Clip-21"></g>
                <polygon id="Fill-20" fill="#FFB751" mask="url(#mask-2)" points="2.3410191 3.34101102 3.67273437 3.34101102 3.67273437 2.55371247e-15 2.3410191 2.55371247e-15"></polygon>
                <polygon id="Fill-22" fill="#FFB751" mask="url(#mask-2)" points="22.3272656 3.34101102 23.6589809 3.34101102 23.6589809 2.55371247e-15 22.3272656 2.55371247e-15"></polygon>
                <polygon id="Fill-23" fill="#FFB751" mask="url(#mask-2)" points="12.3553584 3.34101102 13.6870737 3.34101102 13.6870737 2.55371247e-15 12.3553584 2.55371247e-15"></polygon>
                <polygon id="Fill-24" fill="#FFB751" mask="url(#mask-2)" points="17.341312 3.34101102 18.6730273 3.34101102 18.6730273 2.55371247e-15 17.341312 2.55371247e-15"></polygon>
                <polygon id="Fill-25" fill="#FFB751" mask="url(#mask-2)" points="7.3269727 3.34101102 8.65868798 3.34101102 8.65868798 2.55371247e-15 7.3269727 2.55371247e-15"></polygon>
                <line x1="14.9792219" y1="12.5144871" x2="11.0210682" y2="16.4370123" id="Stroke-26" stroke="#FFB751" stroke-width="0.716967778" mask="url(#mask-2)"></line>
                <line x1="11.0209231" y1="12.5144871" x2="14.9790769" y2="16.4370123" id="Stroke-27" stroke="#FFB751" stroke-width="0.716967778" mask="url(#mask-2)"></line>
            </g>
        </g>
    </g>
</svg>