<?xml version="1.0" encoding="UTF-8"?>
<svg width="30px" height="30px" viewBox="0 0 30 30" version="1.1" xmlns="http://www.w3.org/2000/svg" xmlns:xlink="http://www.w3.org/1999/xlink">
    <title>Icon_Credit card limit increase</title>
    <defs>
        <polygon id="path-1" points="0 0 22.8354776 0 22.8354776 15 0 15"></polygon>
        <polygon id="path-3" points="0 15 25 15 25 0 0 0"></polygon>
    </defs>
    <g id="Icon_Credit-card-limit-increase" stroke="none" stroke-width="1" fill="none" fill-rule="evenodd">
        <g id="Group-11" transform="translate(2.500000, 7.000000)">
            <g id="Group-3">
                <mask id="mask-2" fill="white">
                    <use xlink:href="#path-1"></use>
                </mask>
                <g id="Clip-2"></g>
                <path d="M21.0027674,15 L1.83261858,15 C0.820504362,15 -9.16355106e-05,14.1914708 -9.16355106e-05,13.1942396 L-9.16355106e-05,1.80576038 C-9.16355106e-05,0.808529208 0.820504362,0 1.83261858,0 L21.0027674,0 C22.0148816,0 22.8354776,0.808529208 22.8354776,1.80576038 L22.8354776,13.1942396 C22.8354776,14.1914708 22.0148816,15 21.0027674,15" id="Fill-1" fill="#2D70A9" mask="url(#mask-2)"></path>
            </g>
            <mask id="mask-4" fill="white">
                <use xlink:href="#path-3"></use>
            </mask>
            <g id="Clip-5"></g>
            <polygon id="Fill-4" fill="#19A4D1" mask="url(#mask-4)" points="0 6.75083516 22.8355692 6.75083516 22.8355692 3.9645469 0 3.9645469"></polygon>
            <polygon id="Fill-6" fill="#FFB751" mask="url(#mask-4)" points="17.3728099 6.43207331 25.0000916 4.30082463 20.1049227 9.12401059"></polygon>
            <polygon id="Fill-7" fill="#FFB751" mask="url(#mask-4)" points="22.8371729 11.8160833 25.0002291 4.30096006 20.1050601 9.12414603"></polygon>
            <path d="M12.9154296,8.99300268 L10.2726615,11.5969091 L7.62989334,14.2008156 C7.62989334,14.2008156 8.81290778,13.0351973 10.2726615,11.5969091 L12.9154296,8.99300268 Z" id="Stroke-8" stroke="#FFB751" stroke-width="2.29088776" mask="url(#mask-4)"></path>
            <path d="M20.2453999,8.99300268 C20.2453999,8.99300268 19.0623855,10.158621 17.6026318,11.5969091 C16.1428781,13.0351973 14.9598636,14.2008156 14.9598636,14.2008156 C14.9598636,14.2008156 16.1428781,13.0351973 17.6026318,11.5969091 C19.0623855,10.158621 20.2453999,8.99300268 20.2453999,8.99300268 Z" id="Stroke-9" stroke="#FFB751" stroke-width="2.29088776" mask="url(#mask-4)"></path>
            <path d="M16.5782842,14.2008156 C16.5782842,14.2008156 15.3952698,13.0351973 13.9355161,11.5969091 L11.292748,8.99300268 L13.9355161,11.5969091 C15.3952698,13.0351973 16.5782842,14.2008156 16.5782842,14.2008156 Z" id="Stroke-10" stroke="#FFB751" stroke-width="2.29088776" mask="url(#mask-4)"></path>
        </g>
    </g>
</svg>