<?xml version="1.0" encoding="UTF-8"?>
<svg width="30px" height="30px" viewBox="0 0 30 30" version="1.1" xmlns="http://www.w3.org/2000/svg" xmlns:xlink="http://www.w3.org/1999/xlink">
    <title>Icon_Fee Reversals</title>
    <g id="Icon_Fee-Reversals" stroke="none" stroke-width="1" fill="none" fill-rule="evenodd">
        <g id="Group-13" transform="translate(5.000000, 3.000000)">
            <path d="M17.0759066,13.8694762 C17.0759066,17.8286513 13.9080648,21.037961 10.0000468,21.037961 C6.09202873,21.037961 2.92418688,17.8286513 2.92418688,13.8694762 C2.92418688,9.91030117 6.09202873,6.70099141 10.0000468,6.70099141 C13.9080648,6.70099141 17.0759066,9.91030117 17.0759066,13.8694762" id="Fill-1" fill="#0070AF"></path>
            <path d="M11.3130529,12.8252071 C11.2027045,13.967295 10.3072923,14.6948965 8.8928685,14.7398979 C9.754615,15.6470312 10.6939795,16.7886454 11.6225896,17.9421022 L10.5616549,17.9421022 C9.69944078,16.8895433 8.8928685,15.9151447 7.85390989,14.7957943 L7.85390989,14.1018255 L8.46176146,14.1018255 C9.65548843,14.1018255 10.2965381,13.5978099 10.3736884,12.8252071 L7.85390989,12.8252071 L7.85390989,12.265295 L10.3404904,12.265295 C10.185722,11.6158539 9.59984663,11.2913702 8.63850599,11.2913702 L7.85390989,11.2913702 L7.85390989,10.5637687 L12.495558,10.5637687 L12.495558,11.1236808 L10.6832252,11.1236808 C11.0035162,11.3808993 11.2354349,11.7503844 11.3022986,12.265295 L12.5067799,12.265295 L12.5067799,12.8252071 L11.3130529,12.8252071 Z" id="Fill-3" fill="#FFB751"></path>
            <path d="M16.6446593,6.29839475 C18.7034058,8.15387318 20,10.85822 20,13.8695236" id="Stroke-5" stroke="#19A4D1" stroke-width="2.40282029" stroke-linecap="round"></path>
            <path d="M19.9997195,13.8694762 C19.9997195,19.4643334 15.5226588,24 10.0000935,24 C4.47706062,24 0,19.4643334 0,13.8694762 C0,8.27461902 4.47706062,3.73895245 10.0000935,3.73895245" id="Stroke-7" stroke="#19A4D1" stroke-width="2.40282029"></path>
            <polygon id="Fill-9" fill="#19A4D1" points="7.24919109 0 14.6771373 4.19981407 7.24919109 4.19981407"></polygon>
            <polygon id="Fill-11" fill="#19A4D1" points="7.24919109 8.399865 14.6771373 4.20005092 7.24919109 4.20005092"></polygon>
        </g>
    </g>
</svg>