<?xml version="1.0" encoding="UTF-8"?>
<svg width="30px" height="30px" viewBox="0 0 30 30" version="1.1" xmlns="http://www.w3.org/2000/svg" xmlns:xlink="http://www.w3.org/1999/xlink">
    <title>Icon_Get Reward Points</title>
    <defs>
        <polygon id="path-1" points="0 0 7.9251555 0 7.9251555 7.99854333 0 7.99854333"></polygon>
        <polygon id="path-3" points="0 0 6.38035867 0 6.38035867 6.44023236 0 6.44023236"></polygon>
    </defs>
    <g id="Icon_Get-Reward-Points" stroke="none" stroke-width="1" fill="none" fill-rule="evenodd">
        <g id="Group-11" transform="translate(2.000000, 3.000000)">
            <path d="M23.7914354,12.6316556 C23.7914354,18.8441301 18.8014917,23.8804589 12.6462345,23.8804589 C6.49097732,23.8804589 1.50149912,18.8441301 1.50149912,12.6316556 C1.50149912,6.41918109 6.49097732,1.38285238 12.6462345,1.38285238 C18.8014917,1.38285238 23.7914354,6.41918109 23.7914354,12.6316556" id="Fill-1" fill="#0070AF"></path>
            <polygon id="Fill-3" fill="#FFB751" points="12.6463742 6.48341566 14.6254982 10.5310865 19.0516407 11.1804806 15.8490074 14.3311229 16.6050877 18.7800835 12.6463742 16.6791854 8.68766062 18.7800835 9.44374092 14.3311229 6.24110768 11.1804806 10.6672502 10.5310865"></polygon>
            <g id="Group-7">
                <mask id="mask-2" fill="white">
                    <use xlink:href="#path-1"></use>
                </mask>
                <g id="Clip-6"></g>
                <path d="M7.9251555,3.99927166 C4.92225036,4.53448144 4.49253231,4.96819402 3.96271742,7.99854333 C3.43243696,4.96819402 3.00271891,4.53448144 -0.000186226675,3.99927166 C3.00271891,3.46406189 3.43243696,3.03034931 3.96271742,0 C4.49253231,3.03034931 4.92225036,3.46406189 7.9251555,3.99927166" id="Fill-5" fill="#FFB751" mask="url(#mask-2)"></path>
            </g>
            <g id="Group-10" transform="translate(18.619641, 17.559768)">
                <mask id="mask-4" fill="white">
                    <use xlink:href="#path-3"></use>
                </mask>
                <g id="Clip-9"></g>
                <path d="M6.38059146,3.22018667 C3.96290365,3.65107988 3.6169876,4.00021145 3.19006294,6.44037333 C2.76313829,4.00021145 2.41722224,3.65107988 0,3.22018667 C2.41722224,2.78929345 2.76313829,2.44016188 3.19006294,0 C3.6169876,2.44016188 3.96290365,2.78929345 6.38059146,3.22018667" id="Fill-8" fill="#FFB751" mask="url(#mask-4)"></path>
            </g>
        </g>
    </g>
</svg>