<?xml version="1.0" encoding="UTF-8"?>
<svg width="30px" height="30px" viewBox="0 0 30 30" version="1.1" xmlns="http://www.w3.org/2000/svg" xmlns:xlink="http://www.w3.org/1999/xlink">
    <title>Icon_Annual Fee Waiver</title>
    <g id="Icon_Annual-Fee-Waiver" stroke="none" stroke-width="1" fill="none" fill-rule="evenodd">
        <g id="Group-11" transform="translate(2.000000, 3.000000)">
            <polygon id="Fill-1" fill="#19A4D1" points="0 23 26 23 26 0.945963684 0 0.945963684"></polygon>
            <polygon id="Fill-2" fill="#2D70A9" points="0 5.6509829 26 5.6509829 26 0.946323093 0 0.946323093"></polygon>
            <polygon id="Fill-3" fill="#FFB751" points="2.3410191 3.34070382 3.67309704 3.34070382 3.67309704 0 2.3410191 0"></polygon>
            <polygon id="Fill-4" fill="#FFB751" points="22.3272656 3.34070382 23.6589809 3.34070382 23.6589809 0 22.3272656 0"></polygon>
            <polygon id="Fill-5" fill="#FFB751" points="12.3553584 3.34070382 13.6870737 3.34070382 13.6870737 0 12.3553584 0"></polygon>
            <polygon id="Fill-6" fill="#FFB751" points="17.3409494 3.34070382 18.6730273 3.34070382 18.6730273 0 17.3409494 0"></polygon>
            <polygon id="Fill-7" fill="#FFB751" points="7.3269727 3.34070382 8.65868798 3.34070382 8.65868798 0 7.3269727 0"></polygon>
            <polygon id="Fill-8" fill="#2D70A9" points="13.021071 7.82720255 13.578491 8.78898022 14.3259489 7.96305904 14.669395 9.01900178 15.5735253 8.36487796 15.6881282 9.46826265 16.7097627 9.01504829 16.5904451 10.1180736 17.6849758 9.88481733 17.3368149 10.9393224 18.456007 10.9368066 17.894235 11.8964278 18.989491 12.1246523 18.2387692 12.9473388 19.2625797 13.3965997 18.3555481 14.0464106 19.2625797 14.6965809 18.2387692 15.1454824 18.989491 15.9685283 17.894235 16.1967528 18.456007 17.1560146 17.3368149 17.1538582 17.6849758 18.2080039 16.5904451 17.975107 16.7097627 19.0781323 15.6881282 18.6245586 15.5735253 19.7283027 14.669395 19.0741788 14.3259489 20.1301216 13.578491 19.303841 13.021071 20.2659781 12.4636509 19.303841 11.7161931 20.1301216 11.3727469 19.0741788 10.4686167 19.7283027 10.3540138 18.6245586 9.33237924 19.0781323 9.45169687 17.975107 8.35716617 18.2080039 8.70532703 17.1538582 7.58613494 17.1560146 8.14790699 16.1967528 7.05265096 15.9685283 7.80337281 15.1454824 6.77956229 14.6965809 7.68659385 14.0464106 6.77956229 13.3965997 7.80337281 12.9473388 7.05265096 12.1246523 8.14790699 11.8964278 7.58613494 10.9368066 8.70532703 10.9393224 8.35716617 9.88481733 9.45169687 10.1180736 9.33237924 9.01504829 10.3540138 9.46826265 10.4686167 8.36487796 11.3727469 9.01900178 11.7161931 7.96305904 12.4636509 8.78898022"></polygon>
            <path d="M14.1482055,15.4650686 C14.2406857,15.5585149 14.35275,15.6055974 14.485849,15.6055974 C14.6182226,15.6055974 14.7310123,15.5592337 14.8245805,15.4665062 C14.9181487,15.3741382 14.9649328,15.2620027 14.9649328,15.1304591 C14.9649328,14.9992749 14.9181487,14.8871394 14.8245805,14.7947714 C14.7310123,14.7020439 14.6182226,14.6556802 14.485849,14.6556802 C14.35275,14.6556802 14.2399604,14.7020439 14.1463922,14.7947714 C14.0531866,14.8871394 14.0064025,14.9992749 14.0064025,15.1304591 C14.0064025,15.2620027 14.0535493,15.3734194 14.1482055,15.4650686 L14.1482055,15.4650686 Z M13.3644809,15.1304591 C13.3644809,14.8220864 13.4743692,14.5589993 13.6930577,14.3419164 C13.9121089,14.12699 14.1761309,14.0198862 14.485849,14.0198862 C14.7948418,14.0198862 15.0592264,14.1280683 15.2779149,14.3451511 C15.4973288,14.562234 15.6064917,14.8238835 15.6064917,15.1304591 C15.6064917,15.4370347 15.4973288,15.6990437 15.2779149,15.9161265 C15.0592264,16.13285 14.7948418,16.2417508 14.485849,16.2417508 C14.1761309,16.2417508 13.9121089,16.13285 13.6930577,15.9161265 C13.4743692,15.6990437 13.3644809,15.4370347 13.3644809,15.1304591 L13.3644809,15.1304591 Z M12.0295016,16.268347 L11.5623858,16.268347 L14.0064025,11.8246179 L14.4644516,11.8246179 L12.0295016,16.268347 Z M11.2189396,13.2910054 C11.3114198,13.3844517 11.4238468,13.4311748 11.5565831,13.4311748 C11.6893194,13.4311748 11.8021091,13.3848111 11.8953146,13.292443 C11.9888828,13.1997156 12.035667,13.0879395 12.035667,12.9563959 C12.035667,12.8252117 11.9888828,12.7130762 11.8953146,12.6203488 C11.8021091,12.5279807 11.6893194,12.481617 11.5565831,12.481617 C11.4238468,12.481617 11.3110572,12.5279807 11.2174889,12.6203488 C11.1239207,12.7130762 11.0771366,12.8252117 11.0771366,12.9563959 C11.0771366,13.0879395 11.1242834,13.1993562 11.2189396,13.2910054 L11.2189396,13.2910054 Z M10.7637918,13.7420633 C10.5447406,13.5249805 10.4355777,13.2629715 10.4355777,12.9563959 C10.4355777,12.6498203 10.5447406,12.3878114 10.7637918,12.1710879 C10.982843,11.9540051 11.2472277,11.8454636 11.5565831,11.8454636 C11.8659385,11.8454636 12.1303232,11.9540051 12.3490117,12.1710879 C12.5680629,12.3878114 12.6772259,12.6498203 12.6772259,12.9563959 C12.6772259,13.2629715 12.5687883,13.5249805 12.3504624,13.7420633 C12.1324992,13.9591462 11.8677519,14.0673282 11.5565831,14.0673282 C11.2472277,14.0673282 10.982843,13.9591462 10.7637918,13.7420633 L10.7637918,13.7420633 Z" id="Fill-9" fill="#FFB751"></path>
        </g>
    </g>
</svg>